HIERARCHY
ROOT Hips
{
	OFFSET -3.958830 18.904000 13.208200
	CHANNELS 6 Xposition Yposition Zposition Zrotation Yrotation Xrotation 
	JOINT LHipJoint
	{
		OFFSET 0.000000 0.000000 0.000000
		CHANNELS 3 Zrotation Yrotation Xrotation
		JOINT LeftUpLeg
		{
			OFFSET 1.800000 -1.400000 0.085000
			CHANNELS 3 Zrotation Yrotation Xrotation
			JOINT LeftLeg
			{
				OFFSET 2.215000 -6.000000 0.000000
				CHANNELS 3 Zrotation Yrotation Xrotation
				JOINT LeftFoot
				{
					OFFSET 2.500000 -6.900000 0.000000
					CHANNELS 3 Zrotation Yrotation Xrotation
					JOINT LeftToeBase
					{
						OFFSET 0.200000 -0.500000 1.950000
						CHANNELS 3 Zrotation Yrotation Xrotation
						End Site
						{
							OFFSET 0.000000 0.000000 0.000000
						}
					}
				}
			}
		}
	}
	JOINT RHipJoint
	{
		OFFSET 0.000000 0.000000 0.000000
		CHANNELS 3 Zrotation Yrotation Xrotation
		JOINT RightUpLeg
		{
			OFFSET -1.800000 -1.400000 0.085000
			CHANNELS 3 Zrotation Yrotation Xrotation
			JOINT RightLeg
			{
				OFFSET -2.215000 -6.000000 0.000000
				CHANNELS 3 Zrotation Yrotation Xrotation
				JOINT RightFoot
				{
					OFFSET -2.500000 -6.900000 0.000000
					CHANNELS 3 Zrotation Yrotation Xrotation
					JOINT RightToeBase
					{
						OFFSET -0.200000 -0.500000 1.950000
						CHANNELS 3 Zrotation Yrotation Xrotation
						End Site
						{
							OFFSET 0.000000 0.000000 0.000000
						}
					}
				}
			}
		}
	}
	JOINT LowerBack
	{
		OFFSET 0.000000 0.000000 0.000000
		CHANNELS 3 Zrotation Yrotation Xrotation
		JOINT Spine
		{
			OFFSET -0.087000 1.940000 -0.288900
			CHANNELS 3 Zrotation Yrotation Xrotation
			JOINT Spine1
			{
				OFFSET 0.000000 1.950000 0.060000
				CHANNELS 3 Zrotation Yrotation Xrotation
				JOINT Neck
				{
					OFFSET 0.000000 0.000000 0.000000
					CHANNELS 3 Zrotation Yrotation Xrotation
					JOINT Neck1
					{
						OFFSET 0.000000 1.600000 0.340000
						CHANNELS 3 Zrotation Yrotation Xrotation
						JOINT Head
						{
							OFFSET 0.000000 1.667000 -0.240000
							CHANNELS 3 Zrotation Yrotation Xrotation
							End Site
							{
								OFFSET 0.000000 0.000000 0.000000
							}
						}
					}
				}
				JOINT LeftShoulder
				{
					OFFSET 0.000000 0.000000 0.000000
					CHANNELS 3 Zrotation Yrotation Xrotation
					JOINT LeftArm
					{
						OFFSET 2.700000 1.550000 -0.730000
						CHANNELS 3 Zrotation Yrotation Xrotation
						JOINT LeftForeArm
						{
							OFFSET 5.450000 0.000000 0.000000
							CHANNELS 3 Zrotation Yrotation Xrotation
							JOINT LeftHand
							{
								OFFSET 3.450000 0.000000 0.000000
								CHANNELS 3 Zrotation Yrotation Xrotation
								JOINT LeftHandIndex1
								{
									OFFSET 0.750000 0.000000 0.000000
									CHANNELS 3 Zrotation Yrotation Xrotation
									End Site
									{
										OFFSET 0.000000 0.000000 0.000000
									}
								}
							}
						}
					}
				}
				JOINT RightShoulder
				{
					OFFSET 0.000000 0.000000 0.000000
					CHANNELS 3 Zrotation Yrotation Xrotation
					JOINT RightArm
					{
						OFFSET -2.700000 1.550000 -0.730000
						CHANNELS 3 Zrotation Yrotation Xrotation
						JOINT RightForeArm
						{
							OFFSET -5.450000 0.000000 0.000000
							CHANNELS 3 Zrotation Yrotation Xrotation
							JOINT RightHand
							{
								OFFSET -3.450000 0.000000 0.000000
								CHANNELS 3 Zrotation Yrotation Xrotation
								JOINT RightHandIndex1
								{
									OFFSET -0.750000 0.000000 0.000000
									CHANNELS 3 Zrotation Yrotation Xrotation
									End Site
									{
										OFFSET 0.000000 0.000000 0.000000
									}
								}
							}
						}
					}
				}
			}
		}
	}
}
MOTION
Frames: 10
Frame Time: 0.016667
1.701660 17.489660 -3.811430 -18.625504 -4.772509 -1.554909 -14.868566 11.115107 1.413575 9.032358 -1.022939 -5.243080 -5.478756 4.676924 6.114543 -0.321321 3.930407 3.414058 0.470770 0.426470 0.046320 19.128760 -8.236459 6.458104 -21.408455 6.597459 -57.075353 90.966599 -40.672699 24.700390 -2.593919 -11.992070 0.581178 0.369780 0.476160 0.207100 -5.333979 -0.327078 -8.406167 39.115183 -10.026212 9.996698 -17.383265 -3.626486 11.479912 3.929999 -5.709223 -10.780697 -10.095227 -1.179881 24.360766 -0.289940 -5.392610 -4.981140 -2.970628 -24.927226 5.211818 -15.892584 -32.303765 2.783715 145.713082 -77.613957 -146.006620 -3.823019 3.731757 -0.058660 0.312890 -0.259570 0.334230 -5.111340 25.741944 4.792424 10.246808 21.366841 -6.469525 -165.417577 75.968476 -170.728765 1.546147 -2.416835 -0.045650 0.211120 -0.045460 0.100490 
1.753310 17.502760 -3.734470 -19.165398 -12.666583 -0.114202 -14.888591 11.197621 1.421701 9.178608 -0.958278 -4.176540 -4.720708 4.611787 6.350619 -0.366445 3.984232 3.390211 0.531160 0.486920 0.107650 19.077182 -8.331295 6.405647 -19.338351 8.487789 -56.408703 86.623871 -40.876140 27.615008 -2.651179 -12.143446 0.524383 0.415940 0.458510 0.217770 -5.382781 -0.279688 -8.316701 39.040187 -10.241441 10.811140 -16.719921 -4.000165 11.950687 3.802807 -5.941532 -10.307573 -10.504863 0.395014 24.656525 -0.060710 -4.203090 -7.025410 -2.818723 -24.078681 5.253922 -17.430530 -31.604201 2.515050 150.226167 -78.698517 -152.081801 -3.788857 3.711183 -0.006340 0.296880 -0.217800 0.335610 -4.955793 24.961336 4.115032 10.371967 22.774856 -6.147684 -165.655558 76.539481 -171.007909 1.537020 -2.360340 -0.053650 0.250390 -0.055440 0.076620 
1.863030 17.531460 -3.629500 -21.634575 -29.455717 5.244622 -14.891673 11.200742 1.219149 7.396769 -0.773695 -4.441377 -0.326866 3.741138 8.308240 -0.405096 3.498505 3.553037 0.592520 0.594300 0.096870 19.063340 -8.618611 6.520853 -18.087430 11.765993 -55.888559 85.528252 -37.180987 27.108486 -2.623344 -11.854509 0.609797 0.460660 0.423530 0.153860 -5.772359 0.413973 -8.163421 41.712780 -8.347658 11.207572 -18.283496 -1.385356 12.230599 3.666812 -7.017018 -10.009441 -12.824184 0.751709 26.666594 2.690790 -5.966270 -8.548280 -4.206219 -23.081563 3.165203 -19.031758 -34.533834 1.943353 84.665357 -85.028788 -77.907547 -3.502655 -0.642060 0.013450 0.210830 -0.178620 0.379410 -3.296113 25.263788 5.224418 9.942875 26.518441 -1.803929 -127.638015 73.953414 -126.401459 1.947462 -2.073463 -0.033740 0.298240 -0.106470 0.120450 
1.993170 17.513550 -3.478510 -23.288230 -39.771392 7.679105 -14.909590 11.279401 1.092524 6.299161 -0.519143 -4.150546 1.494887 3.690575 11.758267 -0.422419 3.490609 3.555282 0.568670 0.552670 0.127780 19.042275 -8.702278 6.694861 -21.465498 9.545186 -55.281086 87.874880 -35.920807 24.782948 -2.552162 -11.517514 0.695997 0.442820 0.368250 0.061210 -5.901372 0.473568 -8.235656 41.886675 -8.256591 12.996059 -19.633920 -0.599637 12.878102 4.334555 -6.048811 -10.389451 -11.928487 -1.649670 29.142825 3.599910 -8.336400 -9.426890 -4.922749 -26.706415 2.633580 -17.391746 -34.717754 -1.189699 34.891223 -83.480805 -31.187982 -3.360905 2.749342 0.075230 0.130780 -0.165840 0.350390 -4.264934 27.853131 6.233102 10.006857 24.160917 -4.594004 -133.527949 73.039812 -133.516475 1.857895 -2.271760 -0.085570 0.347370 -0.118740 0.091290 
2.061040 17.433160 -3.337740 -24.365763 -44.235945 8.939328 -14.944407 11.535570 1.021800 7.330895 -0.676989 -4.043005 1.968785 3.950932 14.596800 -0.505443 3.806326 3.435700 0.521000 0.398170 0.180050 18.978360 -8.633247 6.697109 -25.239048 4.341404 -50.757628 91.774993 -31.660750 18.451308 -2.373843 -10.708387 0.884117 0.373940 0.331340 0.037780 -5.706043 -0.130173 -8.239654 39.749391 -10.831860 13.865159 -19.244520 -3.113252 13.752106 5.066595 -5.198743 -11.460895 -10.474317 -2.613780 29.244745 3.734810 -8.840360 -11.316230 -5.818045 -29.608445 3.981130 -15.203972 -30.179738 -5.266312 60.510552 -84.076223 -52.629158 -3.199439 1.523197 0.224560 0.073600 -0.167640 0.285730 -4.638035 30.119324 7.035964 7.580346 24.689689 -4.975314 -123.408763 69.312041 -119.537954 1.981598 -1.764158 -0.176840 0.367430 -0.060480 -0.005070 
2.069450 17.368660 -3.199820 -32.820772 -58.018217 18.995508 -14.665404 11.446625 0.834359 7.622907 -0.465531 -3.248519 3.326362 3.771444 15.597585 -0.409278 3.816085 3.401832 0.565030 0.485410 0.150490 19.295900 -8.652699 6.660214 -24.937662 6.847398 -50.228046 89.067335 -28.453436 18.295501 -2.312577 -10.444872 0.939337 0.387690 0.315040 0.076030 -5.611596 0.466113 -8.420347 39.855887 -9.800970 14.053750 -19.776209 -1.977564 16.080127 5.479724 -5.449197 -12.231811 -10.525493 -1.812507 29.598250 5.228800 -8.723290 -11.716180 -4.775931 -27.859979 6.528176 -15.865488 -28.069649 -2.434734 92.029452 -75.110512 -75.708752 -3.316720 0.125142 0.178280 0.060590 -0.138750 0.312770 -6.199247 29.693619 6.363758 9.786966 28.166731 -3.041319 -110.574646 67.271817 -99.902461 2.114203 -0.223623 -0.091580 0.316450 -0.083970 0.046690 
2.098040 17.282510 -3.110170 -49.129695 -69.307614 36.213901 -14.023914 11.998400 0.786894 6.187055 -0.222802 -4.134211 6.834534 3.225283 18.770822 -0.391695 4.040588 3.304681 0.380090 0.241320 0.030950 19.947914 -8.207998 6.511661 -23.873834 9.744828 -49.874653 82.156339 -26.851181 20.930584 -2.185861 -10.236803 0.983001 0.240470 0.357530 0.038670 -4.904470 0.911522 -8.692481 37.915809 -8.468627 17.191627 -19.256078 -0.397340 14.692925 4.999972 -5.282581 -12.495852 -10.695383 -3.032009 31.694067 9.473580 -11.422430 -13.516510 -6.464840 -28.061409 6.413793 -16.556611 -25.819503 -4.563092 85.893746 -76.011171 -68.924262 -3.154312 0.188254 0.271260 0.008710 -0.163130 0.235090 -3.795757 30.842069 6.892743 8.945894 28.004255 -3.693975 -106.398447 69.094323 -92.368727 2.050713 1.199156 -0.163290 0.368650 0.057740 0.034440 
2.103320 17.193840 -2.954690 -86.605661 -77.149536 74.068975 -14.262413 13.447643 1.076238 3.434937 -0.004138 -6.603470 11.668649 2.213297 22.587469 -0.332603 4.436855 3.114127 0.345790 0.194330 0.015650 19.696170 -6.894769 6.243390 -26.454780 9.547945 -45.658338 76.828647 -26.521423 22.671577 -2.120095 -10.146153 0.975249 0.188900 0.322500 0.068130 -4.815707 2.094854 -8.961582 36.164387 -7.200599 18.729426 -19.880391 0.351892 15.236809 5.610966 -4.856445 -12.733684 -10.472840 -4.290635 33.958388 9.780900 -12.626840 -15.017300 -8.346429 -30.722479 8.162172 -17.250364 -24.409873 -6.534073 82.592416 -70.050115 -60.835097 -3.253057 1.107354 0.320060 -0.018210 -0.124490 0.197790 -3.251822 34.107519 5.392537 13.316061 27.766272 -12.229148 -85.446259 75.008211 -63.813281 0.964888 2.197264 -0.143000 0.345260 0.097330 0.024750 
2.105150 17.034790 -2.841980 -111.934927 -78.478675 100.527696 -15.426414 13.672253 1.256758 0.823410 -0.394527 -6.871056 16.674072 0.541781 21.988636 -0.355626 4.545957 3.128676 0.238970 0.034220 -0.031930 18.574492 -6.312243 6.368462 -29.796024 6.943836 -42.354893 73.542649 -15.239833 12.246489 -1.621408 -8.428898 1.452637 0.134610 0.401310 0.029970 -5.692687 2.086380 -9.199659 33.557207 -7.381445 18.487220 -18.939102 -0.225376 15.437766 5.624297 -2.912285 -13.322992 -6.846144 -6.483064 33.947903 10.416850 -14.070960 -14.090330 -9.547696 -33.199531 9.288865 -16.011343 -21.851491 -7.965971 81.693563 -69.139379 -59.349879 -3.377898 1.245742 0.352470 0.011400 -0.190940 0.174670 -2.211318 35.915786 5.371154 13.262611 26.813402 -15.765506 -57.467493 74.993640 -41.117486 1.211935 0.068435 -0.243430 0.409780 0.167420 -0.001940 
2.096770 16.867990 -2.740230 -151.559810 -71.621903 142.154223 -16.587860 12.381330 0.988738 -0.662319 -0.206423 -8.361700 18.588020 -0.121256 23.857943 -0.357801 4.538232 3.061080 0.207470 -0.021530 -0.082700 17.465175 -7.409360 6.427490 -29.234440 10.051227 -44.633178 66.070968 -10.805901 10.795804 -1.353180 -7.658476 1.620862 0.096510 0.383070 0.079650 -7.336222 1.893339 -9.362365 35.392317 -5.332307 18.505027 -20.063254 2.690525 14.042503 5.492398 -3.163604 -13.097464 -7.157295 -8.271976 34.100560 12.585630 -16.426640 -15.535870 -11.096703 -32.261424 8.159945 -15.807562 -22.281875 -7.704940 75.607012 -70.528905 -54.365894 -3.243059 1.348719 0.363490 -0.012540 -0.189570 0.136010 -0.385444 36.007481 5.800976 14.710381 29.071307 -14.195572 -40.066444 69.908148 -26.550691 1.442265 -0.782545 -0.209730 0.344560 0.227360 0.010490 
